<svg width="116" height="48" viewBox="0 0 116 48" fill="none" xmlns="http://www.w3.org/2000/svg">
<path d="M8.32 37V10.6H14.8V37H8.32ZM0.64 15.96V10.6H22.56V15.96H0.64ZM29.1241 37V10.6H35.6041V37H29.1241ZM33.8041 37V31.8H50.0841V37H33.8041ZM33.8041 26.04V21.36H48.0441V26.04H33.8041ZM33.8041 15.76V10.6H49.9641V15.76H33.8041ZM55.3975 37L64.5975 23.76L55.6775 10.6H63.1975L69.0375 20.36H69.2775L75.1975 10.6H82.7575L73.7175 23.6L83.0375 37H75.5175L69.2775 26.92H69.0375L62.9175 37H55.3975ZM87.3475 37L96.3075 10.6H105.747L114.707 37H107.667L101.347 15.64H100.707L94.3875 37H87.3475ZM92.6675 32.04V27.72H110.348V32.04H92.6675Z" fill="#144AA7"/>
</svg>
