<svg width="307" height="282" viewBox="0 0 307 282" fill="none" xmlns="http://www.w3.org/2000/svg">
<path d="M153.5 281.318C238.124 281.318 306.726 274.595 306.726 266.302C306.726 258.01 238.124 251.287 153.5 251.287C68.8752 251.287 0.273438 258.01 0.273438 266.302C0.273438 274.595 68.8752 281.318 153.5 281.318Z" fill="#F5F5F5"/>
<path d="M275.344 228.527C275.344 228.527 276.53 219.834 282.093 218.886C287.657 217.938 285.973 213.733 287.42 212.105C288.866 210.478 292.651 215.267 289.411 219.929C286.171 224.592 288.818 223.09 287.42 227.445C286.021 231.799 274.838 235.735 275.344 228.527Z" fill="#263238"/>
<path d="M277.193 234.613C277.107 234.615 277.02 234.596 276.943 234.557C276.865 234.518 276.799 234.46 276.749 234.388C276.7 234.317 276.669 234.234 276.66 234.148C276.65 234.061 276.663 233.974 276.696 233.894C276.735 233.807 280.133 224.695 276.83 210.81C275.806 206.816 274.365 202.941 272.531 199.248C269.307 192.254 266.525 186.208 270.65 174.923C271.922 171.446 273.242 168.198 274.522 165.061C279.217 153.523 282.923 144.411 279.027 136.002C278.998 135.939 278.982 135.87 278.979 135.801C278.976 135.731 278.987 135.662 279.012 135.597C279.036 135.531 279.073 135.471 279.12 135.42C279.167 135.369 279.224 135.328 279.288 135.299C279.351 135.27 279.419 135.253 279.489 135.251C279.559 135.248 279.628 135.259 279.693 135.284C279.759 135.308 279.819 135.345 279.87 135.392C279.921 135.439 279.962 135.496 279.991 135.56C284.077 144.379 280.291 153.681 275.502 165.464C274.222 168.625 272.91 171.825 271.646 175.287C267.694 186.161 270.239 191.74 273.487 198.805C275.349 202.562 276.814 206.503 277.857 210.565C281.248 224.79 277.857 233.894 277.683 234.273C277.646 234.373 277.579 234.459 277.492 234.52C277.404 234.58 277.3 234.613 277.193 234.613Z" fill="#263238"/>
<path d="M278.782 232.439C278.782 232.439 282.377 227.026 277.201 224.236C272.025 221.446 270.974 223.699 267.765 221.691C264.557 219.684 262.123 214.84 261.577 217.946C261.032 221.051 264.739 222.822 263.427 224.268C262.115 225.714 272.143 234.881 278.782 232.439Z" fill="#263238"/>
<path d="M281.39 140.167C281.39 140.167 284.03 129.277 276.071 129.696C268.113 130.115 277.66 139.329 281.39 140.167Z" fill="#263238"/>
<path d="M275.147 148.876C275.147 148.876 271.986 139.392 266.541 141.905C261.096 144.418 269.544 149.5 275.147 148.876Z" fill="#263238"/>
<path d="M284.772 148.947C284.772 148.947 283.303 141.313 289.269 140.681C295.236 140.048 293.118 147.042 284.772 148.947Z" fill="#263238"/>
<path d="M282.054 164.966C282.054 164.966 289.506 157.166 292.817 162.263C296.129 167.36 287.278 169.17 282.054 164.966Z" fill="#263238"/>
<path d="M267.758 164.831C267.758 164.831 265.292 153.072 259.112 157.324C252.932 161.575 262.202 166.475 267.758 164.831Z" fill="#263238"/>
<path d="M263.419 182.296C263.419 182.296 267.236 169.913 258.456 171.975C249.676 174.038 256.907 179.886 263.419 182.296Z" fill="#263238"/>
<path d="M277.399 185.489C277.399 185.489 284.203 176.006 290.162 178.377C296.121 180.748 292.146 189.899 277.399 185.489Z" fill="#263238"/>
<path d="M272.16 205.633C272.16 205.633 264.621 191.938 259.318 197.185C254.015 202.433 263.901 208.834 272.16 205.633Z" fill="#263238"/>
<path d="M281.39 204.053C281.39 204.053 278.813 193.171 285.215 193.55C291.616 193.929 290.502 200.781 281.39 204.053Z" fill="#263238"/>
<path d="M279.09 155.126H278.979C278.91 155.114 278.844 155.087 278.786 155.047C278.727 155.008 278.677 154.957 278.64 154.897C278.64 154.834 275.123 149.294 272.76 148.117C272.698 148.086 272.643 148.044 272.598 147.992C272.552 147.94 272.518 147.879 272.496 147.814C272.474 147.749 272.465 147.68 272.469 147.611C272.474 147.542 272.492 147.475 272.523 147.413C272.553 147.352 272.596 147.297 272.648 147.251C272.7 147.206 272.76 147.171 272.825 147.149C272.891 147.127 272.96 147.118 273.029 147.123C273.097 147.128 273.164 147.146 273.226 147.176C275.447 148.275 278.308 152.447 279.24 153.87C281.996 151.701 284.322 149.037 286.1 146.015C286.175 145.906 286.289 145.83 286.417 145.8C286.546 145.771 286.682 145.791 286.797 145.856C286.911 145.922 286.998 146.028 287.038 146.154C287.079 146.279 287.071 146.416 287.017 146.536C286.89 146.757 283.895 152.068 279.382 155.055C279.293 155.106 279.192 155.13 279.09 155.126Z" fill="#263238"/>
<path d="M272.997 170.45H272.934C272.786 170.428 272.652 170.348 272.562 170.229C272.523 170.165 268.239 164.144 263.19 161.686C263.127 161.656 263.071 161.614 263.024 161.563C262.978 161.511 262.942 161.451 262.919 161.386C262.897 161.32 262.887 161.251 262.891 161.181C262.896 161.112 262.914 161.045 262.945 160.982C263.006 160.857 263.114 160.761 263.246 160.715C263.378 160.67 263.522 160.677 263.648 160.737C268.16 162.927 271.946 167.637 273.084 169.146C279.54 163.701 287.775 163.251 288.099 163.235C288.238 163.23 288.373 163.28 288.476 163.372C288.579 163.465 288.642 163.594 288.652 163.733C288.655 163.802 288.645 163.872 288.621 163.937C288.597 164.003 288.561 164.063 288.514 164.114C288.467 164.165 288.41 164.207 288.347 164.237C288.284 164.266 288.216 164.283 288.147 164.286C288.067 164.286 279.548 164.768 273.313 170.316C273.226 170.395 273.114 170.442 272.997 170.45Z" fill="#263238"/>
<path d="M269.923 190.302C269.816 190.301 269.711 190.268 269.623 190.207C264.502 186.73 260.053 177.444 259.863 177.049C259.806 176.922 259.8 176.777 259.847 176.646C259.895 176.515 259.991 176.407 260.116 176.345C260.243 176.286 260.388 176.279 260.52 176.327C260.652 176.374 260.759 176.472 260.819 176.598C260.867 176.693 265.158 185.655 269.931 189.124C271.638 187.986 279.873 182.676 286.527 182.012C286.667 181.998 286.807 182.041 286.916 182.129C287.026 182.218 287.096 182.346 287.112 182.486C287.125 182.625 287.083 182.764 286.994 182.872C286.905 182.98 286.777 183.049 286.638 183.063C279.628 183.766 270.342 190.175 270.247 190.175C270.157 190.253 270.043 190.298 269.923 190.302Z" fill="#263238"/>
<path d="M277.194 209.988C277.117 209.988 277.04 209.971 276.971 209.939C276.901 209.906 276.839 209.858 276.791 209.798C273.808 206.74 269.966 204.661 265.774 203.839C265.638 203.807 265.519 203.723 265.442 203.606C265.365 203.488 265.337 203.345 265.363 203.207C265.378 203.139 265.407 203.075 265.447 203.017C265.486 202.96 265.537 202.912 265.596 202.874C265.655 202.837 265.72 202.811 265.789 202.799C265.857 202.787 265.928 202.789 265.996 202.804C270.248 203.648 274.161 205.713 277.257 208.747C280.481 206.076 284.243 197.074 284.283 196.98C284.309 196.915 284.349 196.857 284.398 196.807C284.448 196.758 284.506 196.719 284.571 196.693C284.636 196.666 284.705 196.653 284.775 196.653C284.845 196.654 284.914 196.668 284.978 196.695C285.106 196.749 285.208 196.852 285.261 196.98C285.315 197.109 285.315 197.254 285.263 197.383C285.089 197.794 281.05 207.467 277.486 209.893C277.401 209.954 277.299 209.988 277.194 209.988Z" fill="#263238"/>
<path d="M278.237 231.143C278.237 231.143 281.311 226.244 284.796 225.54C288.281 224.837 289.775 220.838 291.063 223.248C292.351 225.659 288.803 233.648 278.237 231.143Z" fill="#263238"/>
<path d="M298.389 229.452L297.52 234.755L297.322 235.94L297.03 237.758L296.84 238.856L296.334 241.97L296.279 242.341L296.018 243.906L295.868 244.807L295.607 246.403L295.544 246.79L294.604 252.512L294.28 254.488H260.243L259.927 252.512L258.986 246.79L258.923 246.403L258.654 244.807L258.504 243.906L258.243 242.341L258.18 241.97L257.674 238.856L257.5 237.758L257.2 235.94L257.002 234.755L256.133 229.452H298.389Z" fill="#407BFF"/>
<g opacity="0.2">
<path d="M298.389 229.452L297.52 234.755L297.322 235.94L297.03 237.758L296.84 238.856L296.334 241.97L296.279 242.341L296.018 243.906L295.868 244.807L295.607 246.403L295.544 246.79L294.604 252.512L294.28 254.488H260.243L259.927 252.512L258.986 246.79L258.923 246.403L258.654 244.807L258.504 243.906L258.243 242.341L258.18 241.97L257.674 238.856L257.5 237.758L257.2 235.94L257.002 234.755L256.133 229.452H298.389Z" fill="black"/>
</g>
<path opacity="0.3" d="M295.544 246.791L294.604 252.512H259.926L258.986 246.791H295.544Z" fill="black"/>
<path opacity="0.3" d="M296.334 241.97L296.279 242.342L296.018 243.906H258.504L258.243 242.342L258.18 241.97H296.334Z" fill="black"/>
<path opacity="0.3" d="M297.52 234.755L297.322 235.94H257.2L257.002 234.755H297.52Z" fill="black"/>
<path d="M281.39 140.167C281.39 140.167 284.03 129.277 276.071 129.696C268.113 130.115 277.66 139.329 281.39 140.167Z" fill="white"/>
<path d="M275.147 148.876C275.147 148.876 271.986 139.392 266.541 141.905C261.096 144.418 269.544 149.5 275.147 148.876Z" fill="white"/>
<path d="M284.772 148.947C284.772 148.947 283.303 141.313 289.269 140.681C295.236 140.048 293.118 147.042 284.772 148.947Z" fill="white"/>
<path d="M282.054 164.966C282.054 164.966 289.506 157.166 292.817 162.263C296.129 167.36 287.278 169.17 282.054 164.966Z" fill="white"/>
<path d="M267.758 164.831C267.758 164.831 265.292 153.072 259.112 157.324C252.932 161.575 262.202 166.475 267.758 164.831Z" fill="white"/>
<path d="M263.419 182.296C263.419 182.296 267.236 169.913 258.456 171.975C249.676 174.038 256.907 179.886 263.419 182.296Z" fill="white"/>
<path d="M277.399 185.489C277.399 185.489 284.203 176.006 290.162 178.377C296.121 180.748 292.146 189.899 277.399 185.489Z" fill="white"/>
<path d="M272.16 205.633C272.16 205.633 264.621 191.938 259.318 197.185C254.015 202.433 263.901 208.834 272.16 205.633Z" fill="white"/>
<path d="M281.39 204.053C281.39 204.053 278.813 193.171 285.215 193.55C291.616 193.929 290.502 200.781 281.39 204.053Z" fill="white"/>
<path d="M251.447 210.762H240.905L240.035 211.497L203.564 159.473L129.753 140.672L97.6595 65.217L43.4625 24.344H17.5098L1.70435 74.5027L51.0096 96.1246L94.451 165.124L179.769 180.589L222.317 226.48L214.375 233.198L245.03 242.547H253.067L251.447 210.762Z" fill="#407BFF"/>
<path opacity="0.25" d="M251.447 210.762H240.905L240.035 211.497L203.564 159.473L129.753 140.672L97.6595 65.217L43.4625 24.344H17.5098L1.70435 74.5027L51.0096 96.1246L94.451 165.124L179.769 180.589L222.317 226.48L214.375 233.198L245.03 242.547H253.067L251.447 210.762Z" fill="white"/>
<path d="M245.03 242.547L240.905 210.762L233.721 216.831L188.992 159.473L113.702 140.672L75.674 65.217L17.5098 24.344L1.70435 74.5027L51.0096 96.1246L94.451 165.124L179.769 180.589L222.317 226.48L214.375 233.198L245.03 242.547Z" fill="#407BFF"/>
<path opacity="0.25" d="M97.6594 65.217H75.674L17.5098 24.344H43.4624L97.6594 65.217Z" fill="white"/>
<path opacity="0.25" d="M113.702 140.673H129.752L203.564 159.473H188.991L113.702 140.673Z" fill="white"/>
<path d="M154.591 86.1357C153.343 91.1316 151.686 96.0163 149.636 100.74C147.897 104.533 146.04 108.429 142.666 111.417C134.479 118.268 127.54 107.165 124.489 100.621C122.309 96.0353 120.509 91.2776 119.108 86.3965C118.977 85.9115 119.031 85.3951 119.261 84.9483C119.491 84.5016 119.88 84.1569 120.351 83.9818C120.822 83.8067 121.341 83.8138 121.807 84.0018C122.273 84.1897 122.652 84.5449 122.869 84.9978C125.003 89.3206 127.319 93.6908 129.808 97.7054C131.618 100.55 133.475 103.427 135.933 105.505C136.32 105.874 136.801 106.131 137.323 106.248C137.323 106.248 137.118 106.248 137.205 106.193C139.631 104.122 140.903 100.701 142.279 97.6184C144.011 93.1717 145.509 88.6372 146.767 84.0336C148.348 79.0075 155.729 80.9753 154.591 86.1357Z" fill="#B97864"/>
<path d="M147.289 49.933C146.641 47.333 151.825 44.0218 154.678 45.6181C157.531 47.2145 159.838 49.2929 163.458 48.1865C167.077 47.0801 170.641 48.068 170.76 52.1379C170.878 56.2078 169.416 58.3811 172.475 59.361C175.533 60.3409 178.109 64.403 176.513 66.5367C174.917 68.6704 172.846 70.978 174.68 71.5944C176.513 72.2109 177.983 75.7671 175.66 76.6285C173.336 77.4899 177.738 79.5604 175.415 82.9507C173.091 86.341 157.191 95.0735 151.43 92.7501C145.669 90.4267 144.989 88.285 145.937 85.1319C146.886 81.9787 143.946 81.4492 142.966 78.0194C141.986 74.5896 142.966 73.2777 142.966 73.2777C142.966 73.2777 139.805 76.3598 141.741 78.0194C143.677 79.679 144.436 81.465 142.966 83.1799C141.496 84.8948 142.847 87.0443 142.847 87.0443C142.382 86.968 141.956 86.7355 141.64 86.385C141.324 86.0346 141.137 85.5871 141.109 85.116C141.006 83.4249 143.092 81.6309 140.643 79.5841C138.193 77.5373 137.213 75.3403 138.928 73.1355C140.643 70.9306 139.418 69.2315 138.683 66.4735C137.948 63.7154 138.683 60.2777 141.133 59.2978C141.133 59.2978 138.193 57.0929 140.516 53.5446C142.84 49.9962 147.289 49.933 147.289 49.933Z" fill="#263238"/>
<path d="M137.023 78.873C136.969 78.8742 136.916 78.8575 136.873 78.8256C136.507 78.5668 136.202 78.2311 135.979 77.842C135.757 77.4529 135.622 77.0199 135.585 76.5733C135.596 76.0702 135.715 75.5754 135.935 75.1227C136.154 74.6699 136.469 74.2698 136.857 73.9496C138.185 72.7168 138.959 70.583 137.861 68.8839C136.762 67.1848 136.082 63.676 137.861 60.9812C138.261 60.2625 138.871 59.6834 139.61 59.3218C140.349 58.9601 141.181 58.8332 141.994 58.9581C142.056 58.9727 142.109 59.0114 142.142 59.0655C142.176 59.1196 142.186 59.1847 142.172 59.2465C142.157 59.3084 142.118 59.3618 142.064 59.3952C142.01 59.4285 141.945 59.439 141.883 59.4243C141.796 59.4243 139.789 58.9502 138.256 61.2499C136.612 63.7234 137.284 67.1058 138.256 68.6152C139.346 70.3064 138.896 72.6851 137.173 74.2815C136.835 74.5557 136.561 74.8997 136.369 75.2898C136.176 75.6799 136.071 76.1069 136.059 76.5417C136.094 76.9174 136.21 77.2809 136.4 77.6071C136.59 77.9332 136.848 78.2142 137.157 78.4304C137.18 78.4518 137.198 78.4776 137.21 78.5061C137.222 78.5346 137.228 78.5654 137.228 78.5964C137.228 78.6274 137.222 78.6582 137.21 78.6867C137.198 78.7152 137.18 78.741 137.157 78.7624C137.143 78.7889 137.124 78.8124 137.101 78.8314C137.078 78.8505 137.052 78.8646 137.023 78.873Z" fill="#263238"/>
<path d="M174.695 55.6787C174.016 55.6787 172.324 55.1808 171.107 50.7C169.961 46.4404 166.832 46.9936 163.805 47.5389C162.678 47.8237 161.508 47.904 160.352 47.776C159.336 47.5042 158.378 47.0518 157.523 46.4404C155.697 45.3103 153.8 44.1328 150.276 45.4367C148.577 46.0611 147.589 46.8908 147.352 47.8945C147.289 48.3568 147.327 48.8271 147.464 49.2731C147.6 49.7192 147.832 50.1305 148.142 50.4787C148.186 50.5243 148.21 50.5852 148.21 50.6486C148.21 50.712 148.186 50.7729 148.142 50.8185C148.12 50.8412 148.093 50.8593 148.064 50.8716C148.035 50.8839 148.004 50.8903 147.972 50.8903C147.94 50.8903 147.909 50.8839 147.88 50.8716C147.851 50.8593 147.824 50.8412 147.802 50.8185C147.435 50.4135 147.162 49.9318 147.003 49.4083C146.845 48.8848 146.804 48.3327 146.885 47.7918C147.162 46.6222 148.253 45.6817 150.11 44.9942C153.856 43.6112 155.934 44.8994 157.775 46.0453C158.589 46.6197 159.495 47.0501 160.454 47.3176C161.548 47.4246 162.653 47.3417 163.718 47.0726C166.658 46.551 170.309 45.903 171.574 50.5893C172.617 54.4696 173.944 55.1018 174.513 55.1966C174.715 55.2402 174.926 55.2093 175.106 55.1097C175.093 55.0826 175.086 55.0529 175.086 55.0228C175.086 54.9926 175.093 54.9629 175.106 54.9358C175.122 54.9087 175.142 54.885 175.167 54.8662C175.192 54.8473 175.221 54.8338 175.251 54.8264C175.281 54.819 175.313 54.8179 175.344 54.8231C175.375 54.8283 175.404 54.8398 175.43 54.8568C175.493 54.8915 175.541 54.9464 175.569 55.0124C175.596 55.0784 175.6 55.1517 175.58 55.2203C175.492 55.3733 175.362 55.4978 175.205 55.579C175.048 55.6602 174.871 55.6948 174.695 55.6787Z" fill="#263238"/>
<path d="M176.719 71.4762C176.685 71.4835 176.65 71.4835 176.616 71.4762C176.391 71.3709 176.199 71.2065 176.059 71.0006C175.92 70.7946 175.84 70.5548 175.826 70.3066C175.843 69.6805 175.992 69.0651 176.265 68.5011C176.537 67.9371 176.926 67.4373 177.406 67.0349C177.716 66.6406 177.934 66.1815 178.042 65.6916C178.15 65.2018 178.146 64.6939 178.031 64.2057C177.801 62.9255 176.893 61.2027 173.858 60.2543C171.4 59.5194 169.962 58.5631 169.575 57.4172C169.484 57.1567 169.454 56.8789 169.487 56.6051C169.52 56.3313 169.615 56.0685 169.764 55.8367C169.804 55.7859 169.861 55.7524 169.925 55.7436C169.988 55.7347 170.053 55.7511 170.104 55.7893C170.155 55.827 170.188 55.8832 170.197 55.9454C170.206 56.0077 170.189 56.0709 170.152 56.1212C170.049 56.2888 169.985 56.4773 169.964 56.6728C169.944 56.8683 169.967 57.066 170.033 57.2513C170.27 57.9309 171.139 58.9188 173.984 59.7723C177.422 60.8075 178.284 62.9334 178.489 64.0714C178.742 65.4938 178.284 66.9242 177.699 67.3668C177.287 67.72 176.953 68.1542 176.716 68.6423C176.479 69.1304 176.346 69.6619 176.324 70.2039C176.328 70.3702 176.378 70.5321 176.469 70.6716C176.56 70.811 176.687 70.9227 176.837 70.9942C176.866 71.007 176.892 71.0253 176.913 71.0482C176.935 71.0711 176.952 71.098 176.963 71.1274C176.974 71.1568 176.979 71.1881 176.978 71.2195C176.976 71.2509 176.969 71.2818 176.956 71.3103C176.938 71.3589 176.906 71.4008 176.863 71.4305C176.821 71.4602 176.771 71.4762 176.719 71.4762Z" fill="#263238"/>
<path d="M149.154 80.7855C144.412 82.9588 142.966 93.4299 140.887 98.8354L149.233 103.285L156.59 91.1618L149.154 80.7855Z" fill="#407BFF"/>
<path opacity="0.3" d="M156.59 91.1618L150.11 101.846L149.241 103.285L140.856 98.8354C142.934 93.4062 144.404 82.9667 149.122 80.7855L152.979 86.1752L156.59 91.1618Z" fill="black"/>
<path opacity="0.2" d="M156.59 91.1621L150.11 101.847C144.112 96.3147 149.786 88.1432 149.786 88.1432C150.442 88.0089 152.473 86.128 153.01 86.1754L156.59 91.1621Z" fill="black"/>
<path d="M156.559 122.947L184.669 120.339C183.791 117.352 183.017 114.412 182.361 111.575C181.571 108.121 180.883 104.794 180.362 101.704C179.84 98.6141 179.413 95.7217 179.097 93.1217C179.097 92.8688 179.034 92.6239 179.01 92.3789C178.963 91.9679 178.923 91.5886 178.876 91.1776C178.607 88.6567 178.426 86.436 178.307 84.65C178.07 81.1096 178.07 79.0706 178.07 79.0706C168.439 77.2215 158.499 77.811 149.154 80.7855C144.981 92.5606 156.559 122.947 156.559 122.947Z" fill="#407BFF"/>
<path opacity="0.3" d="M184.669 120.339L156.559 122.947C156.559 122.947 144.981 92.5607 149.154 80.7856C158.5 77.8184 168.439 77.2316 178.07 79.0786C178.07 79.0786 178.07 81.1175 178.307 84.6579C178.426 86.4598 178.607 88.6567 178.876 91.1777C178.876 91.3911 178.923 91.6045 178.947 91.8257C178.971 92.047 178.995 92.1972 179.01 92.3868C179.026 92.5765 179.066 92.8768 179.097 93.1297C179.413 95.7297 179.816 98.6142 180.362 101.712C180.67 103.522 181.018 105.411 181.421 107.363C181.705 108.748 182.019 110.155 182.361 111.583C183.017 114.412 183.784 117.344 184.669 120.339Z" fill="black"/>
<path opacity="0.2" d="M181.421 107.355C181.02 107.293 180.628 107.187 180.251 107.039C172.467 103.941 174.048 90.0714 174.048 90.0714C175.814 90.2211 177.512 90.8225 178.979 91.8179C178.979 91.9997 179.026 92.1893 179.042 92.379C179.058 92.5687 179.097 92.869 179.129 93.1219C179.445 95.7219 179.848 98.6064 180.394 101.704C180.67 103.514 181.018 105.403 181.421 107.355Z" fill="black"/>
<path d="M103.847 217.069C108.944 214.698 109.592 214.318 112.414 212.904C114.832 211.687 115.575 211.671 117.495 210.715C119.131 209.925 118.443 208.605 117.211 207.293C116.594 206.629 115.44 205.167 114.5 204.069L108.178 204.638C107.925 206.842 105.349 212.841 102.646 214.5C100.014 216.097 101.816 218.017 103.847 217.069Z" fill="#263238"/>
<path d="M156.978 119.746L156.472 125.065C156.472 125.065 125.319 129.806 120.333 134.675C115.346 139.543 107.238 205.736 107.238 205.736H115.931C115.931 205.736 130.488 160.69 131.815 152.487C131.815 152.487 152.663 153.278 167.544 153.278C182.424 153.278 184.21 119.723 184.21 119.723L156.978 119.746Z" fill="#263238"/>
<path opacity="0.3" d="M184.227 119.746C184.227 119.746 182.456 153.293 167.568 153.293C165.047 153.293 162.344 153.293 159.61 153.23H157.239L154.196 153.175C153.461 153.175 152.718 153.135 151.991 153.128C144.144 152.946 136.976 152.701 133.72 152.59H133.467L131.887 152.519C131.515 154.779 130.156 159.79 128.37 165.898C123.628 182.044 115.994 205.76 115.994 205.76H107.301C107.301 205.76 115.409 139.574 120.396 134.706C125.383 129.838 156.535 125.089 156.535 125.089L157.033 119.77L184.227 119.746Z" fill="white"/>
<path opacity="0.2" d="M161.095 127.159L159.609 153.238C158.819 153.238 158.029 153.238 157.238 153.238L154.196 153.183L151.991 153.135C144.088 152.961 136.976 152.724 133.72 152.598H133.467L131.886 152.535C131.515 154.795 130.156 159.805 128.37 165.914C129.326 153.926 130.306 141.929 131.262 141.091C144.159 129.893 161.095 127.159 161.095 127.159Z" fill="black"/>
<path d="M173.368 96.3224C172.46 96.8734 171.47 97.2762 170.436 97.5158C168.642 97.9425 167.907 96.4331 166.484 96.0775C165.062 95.7218 165.243 96.9863 165.243 96.9863C164.681 94.5089 164.553 91.9526 164.864 89.4313C165.133 86.9784 165.677 84.5636 166.484 82.2319L173.375 78.0592C173.069 78.5637 172.805 79.0923 172.585 79.6398C171.622 82.008 171.17 84.5528 171.257 87.1078C171.305 90.2936 172.024 93.4334 173.368 96.3224Z" fill="#407BFF"/>
<path opacity="0.2" d="M173.36 78.0592C173.054 78.5637 172.79 79.0923 172.57 79.6398C170.808 81.3516 169.316 83.3207 168.144 85.4799C167.32 87.0104 166.19 88.3553 164.825 89.4313C165.094 86.9784 165.638 84.5636 166.445 82.2319L173.336 78.0592H173.36Z" fill="black"/>
<path d="M155.484 77.3874C157.854 76.3679 161.087 76.4469 162.596 78.5095C164.105 80.5722 158.921 86.0409 156.566 84.0415C154.211 82.0421 153.5 78.2883 155.484 77.3874Z" fill="#407BFF"/>
<path opacity="0.2" d="M155.484 77.3874C157.854 76.3679 161.087 76.4469 162.596 78.5095C164.105 80.5722 158.921 86.0409 156.566 84.0415C154.211 82.0421 153.5 78.2883 155.484 77.3874Z" fill="black"/>
<path d="M167.172 78.1697L165.82 80.4852L164.722 82.3739C164.225 83.222 163.514 83.9242 162.659 84.4095C161.805 84.8948 160.837 85.1461 159.855 85.1381C158.872 85.1301 157.909 84.863 157.062 84.3638C156.216 83.8646 155.516 83.151 155.033 82.2949C156.036 81.7362 156.868 80.9171 157.444 79.9241C157.791 79.2427 157.96 78.4838 157.934 77.7192C157.92 77.3027 157.859 76.8892 157.752 76.4864C157.485 75.4958 157.094 74.5427 156.59 73.6493L162.122 64.9563L162.312 64.6481V64.901C162.383 65.873 162.509 66.9873 162.667 68.149C162.839 69.3778 163.077 70.5965 163.378 71.8C164.161 74.6292 165.354 77.2451 167.172 78.1697Z" fill="#B97964"/>
<path opacity="0.2" d="M163.419 71.7451C162.296 75.1353 160.447 78.6995 157.444 79.9007C157.792 79.2193 157.961 78.4605 157.934 77.6958C157.92 77.2793 157.859 76.8658 157.752 76.463C157.485 75.4724 157.095 74.5193 156.591 73.6259L162.122 64.9329L162.328 64.8776C162.399 65.8496 162.526 66.9639 162.684 68.1256C162.865 69.3442 163.11 70.5523 163.419 71.7451Z" fill="black"/>
<path d="M155.484 77.3876C155.484 77.3876 156.377 81.3389 159.498 80.7857C162.62 80.2325 166.54 75.7359 168.8 75.4909C171.06 75.2459 171.495 76.8423 171.495 76.8423C171.495 76.8423 173.075 76.2654 174.008 78.4228C174.008 78.4228 172.475 78.7152 170.056 81.41C167.638 84.1049 163.134 90.0398 157.562 88.3882C151.991 86.7365 154.03 80.9438 154.03 80.9438C154.03 80.9438 153.311 78.4623 155.484 77.3876Z" fill="#407BFF"/>
<path d="M151.92 54.746C145.416 56.3819 144.207 60.3965 145.416 67.2165C146.933 75.7436 150.292 81.2281 157.973 77.3874C168.373 72.1715 162.691 52.0195 151.92 54.746Z" fill="#B97964"/>
<path d="M149.501 65.7941C149.224 66.8928 148.815 67.9541 148.284 68.9552C148.543 69.1756 148.858 69.3202 149.194 69.3732C149.53 69.4262 149.874 69.3854 150.189 69.2555L149.501 65.7941Z" fill="#A24E3F"/>
<path d="M153.342 64.2531C153.469 64.7905 153.856 65.1619 154.22 65.0433C154.583 64.9248 154.765 64.4585 154.646 63.9212C154.528 63.3838 154.133 63.0123 153.777 63.1309C153.421 63.2494 153.224 63.7157 153.342 64.2531Z" fill="#263238"/>
<path d="M153.927 63.1308L152.654 62.9332C152.654 62.9332 153.5 63.7867 153.927 63.1308Z" fill="#263238"/>
<path d="M146.64 65.6439C146.759 66.1813 147.154 66.5449 147.51 66.4342C147.865 66.3236 148.055 65.8494 147.936 65.312C147.818 64.7746 147.423 64.4032 147.067 64.5218C146.712 64.6403 146.514 65.1303 146.64 65.6439Z" fill="#263238"/>
<path d="M147.226 64.5374L145.945 64.3398C145.945 64.3398 146.751 65.1933 147.226 64.5374Z" fill="#263238"/>
<path d="M144.91 63.2732C144.844 63.2723 144.78 63.2481 144.729 63.2048C144.679 63.1614 144.645 63.1018 144.634 63.0361C144.622 62.962 144.639 62.8861 144.682 62.8243C144.725 62.7626 144.789 62.7195 144.863 62.7042C145.274 62.5853 145.654 62.375 145.972 62.089C146.291 61.803 146.541 61.4487 146.704 61.0526C146.74 60.9853 146.8 60.9344 146.872 60.9108C146.945 60.8872 147.023 60.8927 147.091 60.9261C147.126 60.9429 147.156 60.9663 147.181 60.995C147.206 61.0236 147.225 61.057 147.236 61.0931C147.248 61.1292 147.253 61.1672 147.249 61.2051C147.246 61.2429 147.236 61.2797 147.218 61.3133C147.015 61.7897 146.706 62.2132 146.314 62.5516C145.923 62.89 145.458 63.1341 144.958 63.2653L144.91 63.2732Z" fill="#263238"/>
<path d="M153.445 61.4159C152.63 61.4487 151.835 61.1655 151.224 60.6257C151.171 60.5722 151.141 60.4997 151.141 60.4242C151.141 60.3486 151.171 60.2761 151.224 60.2226C151.278 60.1692 151.35 60.1392 151.426 60.1392C151.501 60.1392 151.574 60.1692 151.627 60.2226C151.962 60.4898 152.352 60.6782 152.769 60.774C153.187 60.8697 153.62 60.8704 154.038 60.7758C154.113 60.7667 154.189 60.7872 154.249 60.8329C154.31 60.8786 154.35 60.9459 154.362 61.0208C154.373 61.0952 154.354 61.171 154.31 61.2318C154.266 61.2925 154.199 61.3331 154.125 61.3448C153.9 61.3829 153.673 61.4067 153.445 61.4159Z" fill="#263238"/>
<path d="M161.767 63.9131C161.767 63.9131 157.373 59.3374 156.796 55.0936C156.796 55.0936 142.571 53.0784 145.243 66.3234C145.243 66.3234 141.054 55.0225 152.173 51.9404C163.292 48.8584 167.362 65.2329 162.818 71.563C162.818 71.563 164.494 66.7818 161.767 63.9131Z" fill="#263238"/>
<path d="M161.047 65.5569C160.984 65.176 160.996 64.7864 161.083 64.4103C161.17 64.0341 161.331 63.6789 161.555 63.3648C161.78 63.0507 162.064 62.7839 162.392 62.5797C162.72 62.3755 163.084 62.2378 163.465 62.1745C165.536 61.8821 167.535 65.7782 162.778 68.0383C162.09 68.3624 161.505 67.7617 161.047 65.5569Z" fill="#B97964"/>
<path d="M151.627 72.5905C151.593 72.5985 151.558 72.5985 151.524 72.5905C151.489 72.5782 151.457 72.5589 151.429 72.5337C151.401 72.5086 151.379 72.4781 151.364 72.4441C151.348 72.4102 151.34 72.3734 151.339 72.3361C151.338 72.2988 151.344 72.2616 151.358 72.2269C152.449 69.461 155.499 69.9351 155.531 69.943C155.567 69.9488 155.603 69.9618 155.634 69.9813C155.665 70.0008 155.693 70.0264 155.714 70.0566C155.735 70.0868 155.75 70.121 155.758 70.1572C155.766 70.1933 155.767 70.2307 155.76 70.2671C155.748 70.3414 155.708 70.4081 155.647 70.4525C155.586 70.4969 155.51 70.5155 155.436 70.5041C155.333 70.5041 152.804 70.109 151.888 72.4324C151.864 72.4808 151.826 72.5213 151.78 72.5493C151.734 72.5773 151.681 72.5916 151.627 72.5905Z" fill="#263238"/>
<path d="M163.703 61.0287C160.542 53.1812 147.107 48.7241 144.46 59.1004C144.749 56.5714 145.805 54.1915 147.487 52.2803C147.487 52.2803 159.04 46.3691 163.94 59.8907L163.703 61.0287Z" fill="#407BFF"/>
<path d="M157.452 223.802C161.261 219.668 161.711 219.06 163.774 216.689C165.544 214.65 166.2 214.366 167.638 212.738C168.848 211.378 167.71 210.422 166.058 209.679C165.268 209.3 163.616 208.391 162.328 207.735L156.685 210.675C157.294 212.809 157.191 219.368 155.31 221.913C153.5 224.363 155.927 225.453 157.452 223.802Z" fill="#263238"/>
<path d="M184.234 119.746C184.234 119.746 193.859 133.971 188.62 145.723C183.38 157.474 157.135 152.155 157.135 152.155L163.908 208.218L156.574 211.513C156.574 211.513 136.817 154.092 136.027 143.32C135.237 132.549 166.998 125.634 166.998 125.634L184.234 119.746Z" fill="#263238"/>
<path opacity="0.3" d="M184.234 119.746C184.234 119.746 193.859 133.971 188.62 145.723C183.38 157.474 157.135 152.155 157.135 152.155L163.908 208.218L156.574 211.513C156.574 211.513 136.817 154.092 136.027 143.32C135.237 132.549 166.998 125.634 166.998 125.634L184.234 119.746Z" fill="white"/>
<path d="M182.053 82.4214C183.635 87.321 184.808 92.3432 185.562 97.4366C186.091 101.57 186.565 105.861 185.285 110.176C181.942 120.323 170.191 114.554 164.145 110.61C159.869 107.874 155.83 104.783 152.07 101.372C151.722 101.025 151.512 100.564 151.481 100.073C151.45 99.5832 151.598 99.0985 151.899 98.7102C152.2 98.322 152.632 98.057 153.115 97.9651C153.598 97.8732 154.097 97.9606 154.52 98.2111C158.621 100.764 162.873 103.221 167.164 105.324C170.199 106.778 173.296 108.24 176.481 108.706C177.007 108.818 177.555 108.783 178.062 108.603C178.062 108.603 177.88 108.706 177.927 108.603C178.892 105.569 178.165 101.981 177.698 98.6457C176.825 93.9535 175.703 89.3108 174.34 84.7369C173.028 79.6317 180.338 77.411 182.092 82.3661L182.053 82.4214Z" fill="#B97864"/>
<path d="M154.694 125.317C150.189 128.668 138.928 134.99 142.603 143.557C146.278 152.124 145.867 169.012 141.947 176.235C138.027 183.458 142.595 196.079 142.595 196.079C142.595 196.079 127.848 194.372 120.989 195.81C120.989 195.81 117.037 183.442 119.748 174.757C122.459 166.072 125.28 162.113 122.498 152.052C119.716 141.992 119.819 135.765 125.027 129.522C130.235 123.279 139.165 124.401 138.312 119.501C137.458 114.601 134.447 103.411 128.907 101.325C116.69 96.6858 116.397 87.4633 113.892 83.425C116.579 81.6627 119.495 83.0219 121.297 81.5757C126.315 77.5374 132.187 80.3271 135.522 86.8232C138.857 93.3192 147.471 94.7259 151.106 98.859C154.741 102.992 159.206 121.959 154.694 125.317Z" fill="#263238"/>
<path opacity="0.8" d="M156.574 119.588C156.503 122.267 155.942 124.385 154.693 125.318L154.583 125.412C152.267 127.119 148.261 129.577 145.423 132.675C142.729 135.567 140.974 139.037 142.389 142.988C142.46 143.178 142.523 143.367 142.61 143.557C145.21 149.611 145.771 159.829 144.483 167.842C144.101 170.757 143.249 173.592 141.962 176.235C141.198 177.696 140.718 179.289 140.547 180.929C139.647 187.884 142.602 196.079 142.602 196.079C142.602 196.079 127.856 194.364 121.004 195.802C119.671 191.352 118.935 186.743 118.815 182.099C118.755 179.618 119.072 177.143 119.755 174.757C120.38 172.766 121.004 171.019 121.565 169.391C123.47 163.93 124.655 159.789 122.505 152.06C121.595 149.027 121.004 145.907 120.743 142.751C120.384 139.076 121.215 135.383 123.114 132.217C123.681 131.271 124.323 130.372 125.034 129.53C127.405 126.716 130.464 125.405 133.079 124.361C136.154 123.129 138.611 122.275 138.366 119.825C138.366 119.715 138.366 119.612 138.319 119.509C137.623 115.558 135.585 107.702 131.997 103.585C131.459 102.952 130.837 102.396 130.147 101.933C129.765 101.681 129.357 101.469 128.93 101.301C117.353 96.9072 116.491 88.4039 114.302 84.089C114.176 83.844 114.057 83.6148 113.923 83.4014C116.602 81.6391 119.518 82.9984 121.328 81.5522C126.006 77.7826 131.42 79.9716 134.81 85.5036C135.055 85.9066 135.3 86.2938 135.521 86.768C137.015 89.6841 139.575 91.5729 142.278 93.1455C145.589 95.0817 149.098 96.5358 151.106 98.8039C152.22 100.068 153.405 102.716 154.401 105.916C155.721 110.263 156.701 115.558 156.574 119.588Z" fill="white"/>
<path d="M118.025 93.7541L119.755 96.7492C119.973 97.1281 120.298 97.4349 120.688 97.6315C121.078 97.8282 121.518 97.9061 121.952 97.8556L124.702 97.5474L121.636 91.8179L118.76 92.2367C118.595 92.2609 118.439 92.325 118.305 92.4233C118.171 92.5217 118.063 92.6513 117.991 92.8009C117.918 92.9505 117.883 93.1156 117.889 93.2817C117.895 93.4478 117.942 93.61 118.025 93.7541Z" fill="#B97964"/>
<path opacity="0.1" d="M134.786 85.5351C131.831 84.0968 125.69 82.4135 114.279 84.0889C114.152 83.8439 114.034 83.6147 113.899 83.4014C116.578 81.6391 119.494 82.9983 121.304 81.5521C125.983 77.7825 131.372 79.9637 134.786 85.5351Z" fill="black"/>
<path opacity="0.05" d="M154.377 105.948C150.948 105.885 146.419 103.269 141.954 102.249C138.571 101.592 135.066 102.058 131.973 103.577C131.436 102.944 130.813 102.388 130.124 101.925C133.182 100.669 137.173 94.813 142.254 93.1692C145.566 95.1054 149.075 96.5595 151.082 98.8276C152.196 100.1 153.382 102.787 154.377 105.948Z" fill="black"/>
<path opacity="0.08" d="M156.574 119.588C156.503 122.267 155.942 124.385 154.694 125.317L154.583 125.412C150.19 125.011 145.767 125.064 141.385 125.57C136.723 126.226 134.273 125.223 133.088 124.361C136.162 123.128 138.619 122.275 138.374 119.825C140.349 119.58 142.354 119.785 144.238 120.426C147.913 121.651 149.541 119.691 153.295 119.201C154.403 119.071 155.527 119.203 156.574 119.588Z" fill="black"/>
<path d="M104.187 104.02C104.187 104.02 98.0466 91.1223 102.132 83.4013C104.709 78.5253 127.066 79.7424 127.066 79.7424C127.066 79.7424 116.903 80.019 123.999 103.063C123.999 103.063 111.537 101.728 104.187 104.02Z" fill="#263238"/>
<path opacity="0.9" d="M104.187 104.02C104.187 104.02 98.0466 91.1223 102.132 83.4013C104.709 78.5253 127.066 79.7424 127.066 79.7424C127.066 79.7424 116.903 80.019 123.999 103.063C123.999 103.063 111.537 101.728 104.187 104.02Z" fill="white"/>
<g opacity="0.4">
<path d="M115.78 96.8517C115.63 96.2194 116.041 95.8559 116.989 95.8875C117.59 95.8875 118.191 95.9507 118.783 95.9903C119.068 97.2468 119.36 98.5112 119.645 99.7757C119.084 99.7204 118.522 99.6808 117.953 99.6492C117.092 99.6018 116.523 99.2225 116.373 98.6219C116.326 98.4739 116.332 98.3143 116.39 98.1703C116.447 98.0262 116.553 97.9065 116.689 97.8316C116.46 97.7711 116.253 97.6469 116.092 97.4735C115.932 97.3 115.823 97.0843 115.78 96.8517ZM116.333 96.907C116.428 97.3416 116.8 97.5392 117.4 97.5708L118.633 97.6419L118.349 96.3933C117.938 96.3933 117.558 96.338 117.108 96.3222C116.515 96.2985 116.231 96.4644 116.357 96.907H116.333ZM119.005 99.2778C118.918 98.8748 118.823 98.4875 118.736 98.0687C118.364 98.0687 118.001 98.0134 117.629 97.9976C117.084 97.9976 116.839 98.1635 116.91 98.5586C116.981 98.9538 117.361 99.1672 117.906 99.1988L119.005 99.2778Z" fill="black"/>
<path d="M115.567 99.5627H115.03C114.745 98.3299 114.453 97.0892 114.168 95.8563H114.706C114.998 97.0812 115.283 98.322 115.567 99.5627Z" fill="black"/>
<path d="M113.9 99.5627H113.354C113.109 98.48 112.857 97.4053 112.604 96.3384C111.916 96.3384 111.236 96.4016 110.557 96.4569C110.557 96.3068 110.486 96.1566 110.446 96.0065C111.308 95.9354 112.169 95.8879 113.038 95.8563C113.323 97.105 113.607 98.3299 113.9 99.5627Z" fill="black"/>
<path d="M110.691 99.7128H110.146C109.901 98.6538 109.648 97.5948 109.395 96.5517C108.715 96.6149 108.028 96.7018 107.348 96.7888C107.348 96.6465 107.277 96.4964 107.245 96.3462C108.107 96.2277 108.96 96.1249 109.829 96.0459C110.114 97.255 110.398 98.4957 110.691 99.7128Z" fill="black"/>
<path d="M107.103 96.8124C107.103 96.9547 107.032 97.0969 107 97.2391C106.589 97.0199 106.116 96.9448 105.657 97.0258C105.009 97.1364 104.787 97.4288 104.866 97.737C105.08 98.5905 107.237 97.6738 107.545 99.0252C107.68 99.5784 107.34 100.108 106.352 100.258C105.92 100.331 105.477 100.293 105.064 100.147C105.064 99.9972 105.119 99.855 105.143 99.7048C105.493 99.839 105.871 99.8799 106.242 99.8233C106.882 99.7206 107.103 99.4282 107.032 99.12C106.818 98.227 104.661 99.12 104.361 97.8635C104.226 97.3261 104.574 96.765 105.57 96.5911C106.091 96.4911 106.631 96.5691 107.103 96.8124Z" fill="black"/>
</g>
<g opacity="0.4">
<path d="M110.659 94.181C110.629 94.181 110.6 94.1696 110.578 94.1491C110.556 94.1285 110.543 94.1004 110.541 94.0703C110.539 94.0545 110.54 94.0384 110.544 94.0231C110.549 94.0078 110.557 93.9937 110.567 93.9817C110.578 93.9696 110.591 93.96 110.605 93.9535C110.62 93.947 110.636 93.9437 110.652 93.9439C113.907 93.6535 117.179 93.5981 120.443 93.7779C120.475 93.7799 120.505 93.7941 120.527 93.8176C120.549 93.8411 120.562 93.8721 120.562 93.9044C120.561 93.9199 120.557 93.9352 120.55 93.9492C120.543 93.9632 120.533 93.9757 120.521 93.9859C120.51 93.9962 120.496 94.0041 120.481 94.0091C120.466 94.0141 120.451 94.0161 120.435 94.015C117.179 93.8352 113.915 93.8906 110.667 94.181H110.659Z" fill="black"/>
<path d="M119.827 91.9365C117.511 91.7473 115.186 91.7024 112.864 91.8022C112.833 91.8005 112.803 91.7877 112.779 91.766C112.756 91.7443 112.742 91.7151 112.738 91.6836C112.738 91.6522 112.75 91.622 112.773 91.5998C112.795 91.5776 112.825 91.5651 112.856 91.5651C115.188 91.4704 117.524 91.5127 119.85 91.6915C119.883 91.6955 119.912 91.7116 119.932 91.7366C119.953 91.7616 119.963 91.7936 119.961 91.8259C119.96 91.8422 119.956 91.8582 119.948 91.8727C119.941 91.8873 119.931 91.9002 119.918 91.9106C119.905 91.921 119.891 91.9286 119.875 91.9331C119.859 91.9376 119.843 91.9387 119.827 91.9365Z" fill="black"/>
<path d="M101.991 93.3035C101.964 93.3045 101.938 93.2964 101.916 93.2806C101.895 93.2648 101.879 93.2423 101.872 93.2166C101.865 93.1852 101.87 93.1521 101.886 93.1242C101.902 93.0963 101.928 93.0756 101.959 93.0664C103.129 92.774 104.369 92.5132 105.642 92.2761C105.674 92.2734 105.706 92.2822 105.732 92.3011C105.758 92.3199 105.776 92.3475 105.784 92.3789C105.786 92.41 105.777 92.4409 105.758 92.4657C105.739 92.4905 105.712 92.5075 105.681 92.5132C104.417 92.7266 103.184 92.9795 102.022 93.3035H101.991Z" fill="black"/>
<path d="M122.396 81.5285C119.051 81.058 115.666 80.9362 112.296 81.165C112.264 81.1672 112.232 81.157 112.207 81.1364C112.182 81.1158 112.166 81.0865 112.162 81.0543C112.16 81.0388 112.162 81.0231 112.167 81.0083C112.172 80.9935 112.18 80.9799 112.191 80.9681C112.201 80.9564 112.213 80.9468 112.227 80.9399C112.241 80.933 112.257 80.9289 112.272 80.9279C115.663 80.6988 119.069 80.8207 122.435 81.2914C122.451 81.2934 122.466 81.2984 122.479 81.3062C122.493 81.3141 122.505 81.3245 122.515 81.337C122.524 81.3495 122.531 81.3638 122.535 81.3791C122.539 81.3943 122.54 81.4102 122.538 81.4258C122.536 81.4422 122.531 81.458 122.522 81.4723C122.514 81.4866 122.503 81.4989 122.489 81.5086C122.476 81.5183 122.461 81.525 122.445 81.5285C122.428 81.5319 122.412 81.5319 122.396 81.5285Z" fill="black"/>
<path d="M103.46 82.9589C103.436 82.9587 103.412 82.951 103.392 82.9369C103.372 82.9227 103.357 82.9028 103.349 82.8799C103.343 82.8655 103.34 82.8499 103.34 82.8342C103.341 82.8184 103.344 82.803 103.351 82.7888C103.358 82.7745 103.367 82.7619 103.379 82.7518C103.391 82.7416 103.405 82.7341 103.421 82.7298C104.89 82.1752 106.405 81.7521 107.949 81.4653C107.965 81.4619 107.982 81.4619 107.998 81.4653C108.014 81.4688 108.029 81.4755 108.043 81.4852C108.056 81.4949 108.067 81.5072 108.076 81.5215C108.084 81.5358 108.089 81.5516 108.091 81.568C108.094 81.5832 108.095 81.5988 108.092 81.6141C108.089 81.6293 108.082 81.6437 108.074 81.6563C108.065 81.669 108.053 81.6796 108.04 81.6876C108.026 81.6955 108.012 81.7006 107.996 81.7024C106.463 81.985 104.959 82.4028 103.5 82.951L103.46 82.9589Z" fill="black"/>
<path d="M107.206 90.087C107.192 90.0881 107.177 90.0863 107.163 90.0817C107.15 90.0771 107.137 90.0698 107.126 90.0603C107.115 90.0507 107.106 90.0391 107.099 90.0261C107.093 90.013 107.089 89.9988 107.088 89.9843C107.084 89.9686 107.084 89.9523 107.088 89.9365C107.091 89.9208 107.098 89.906 107.108 89.8932C107.118 89.8804 107.13 89.8699 107.144 89.8625C107.159 89.855 107.174 89.8507 107.191 89.8499C111.323 89.2963 115.506 89.2326 119.653 89.6603C119.669 89.6613 119.684 89.6654 119.698 89.6723C119.712 89.6792 119.724 89.6888 119.735 89.7005C119.745 89.7123 119.753 89.7259 119.758 89.7407C119.763 89.7555 119.765 89.7711 119.764 89.7867C119.763 89.803 119.759 89.819 119.751 89.8336C119.744 89.8481 119.733 89.861 119.721 89.8714C119.708 89.8818 119.694 89.8895 119.678 89.8939C119.662 89.8984 119.646 89.8996 119.629 89.8974C115.501 89.4734 111.336 89.5371 107.222 90.087H107.206Z" fill="black"/>
<path d="M101.991 88.9966C101.967 88.9982 101.943 88.9921 101.924 88.9793C101.904 88.9665 101.888 88.9476 101.88 88.9255C101.869 88.896 101.869 88.8635 101.881 88.8343C101.893 88.805 101.915 88.7812 101.943 88.7674C103.769 88.1403 105.659 87.7163 107.578 87.503C107.593 87.5008 107.609 87.5017 107.625 87.5057C107.64 87.5097 107.654 87.5166 107.667 87.5262C107.679 87.5358 107.69 87.5477 107.697 87.5614C107.705 87.575 107.71 87.5901 107.712 87.6057C107.715 87.6369 107.706 87.6678 107.687 87.6926C107.668 87.7174 107.64 87.7343 107.609 87.7401C105.711 87.9466 103.843 88.3654 102.038 88.9887L101.991 88.9966Z" fill="black"/>
<path d="M119.827 87.6924C117.709 87.4628 115.58 87.352 113.45 87.3605C113.431 87.3653 113.411 87.3657 113.393 87.3618C113.374 87.3579 113.356 87.3497 113.341 87.3379C113.326 87.3261 113.313 87.3109 113.305 87.2936C113.296 87.2763 113.292 87.2573 113.292 87.238C113.292 87.2187 113.296 87.1997 113.305 87.1824C113.313 87.1651 113.326 87.15 113.341 87.1381C113.356 87.1263 113.374 87.1181 113.393 87.1142C113.411 87.1103 113.431 87.1107 113.45 87.1155C115.593 87.1138 117.735 87.2273 119.867 87.4553C119.897 87.4593 119.924 87.4746 119.943 87.4981C119.962 87.5216 119.972 87.5516 119.969 87.5818C119.969 87.5989 119.964 87.6156 119.956 87.6308C119.948 87.646 119.937 87.6594 119.924 87.6699C119.91 87.6804 119.895 87.6879 119.878 87.6917C119.861 87.6956 119.844 87.6959 119.827 87.6924Z" fill="black"/>
<path d="M119.826 85.8591C116.732 85.3198 113.578 85.2108 110.454 85.5351C110.398 85.5351 110.335 85.5351 110.327 85.4245C110.326 85.4089 110.328 85.3933 110.333 85.3785C110.338 85.3637 110.346 85.35 110.356 85.3383C110.367 85.3265 110.379 85.3169 110.393 85.31C110.407 85.3031 110.422 85.2991 110.438 85.298C113.583 84.9721 116.759 85.0838 119.874 85.63C119.904 85.6357 119.931 85.653 119.948 85.678C119.966 85.7031 119.973 85.734 119.969 85.7643C119.961 85.7951 119.942 85.8218 119.916 85.8394C119.89 85.857 119.858 85.864 119.826 85.8591Z" fill="black"/>
<path d="M102.725 84.7529C102.701 84.7526 102.677 84.7449 102.657 84.7308C102.638 84.7166 102.623 84.6968 102.615 84.6738C102.608 84.6594 102.605 84.6438 102.606 84.6281C102.606 84.6124 102.61 84.5969 102.616 84.5827C102.623 84.5685 102.633 84.5559 102.645 84.5457C102.657 84.5355 102.671 84.528 102.686 84.5237C103.957 84.1446 105.25 83.8438 106.558 83.6228C106.574 83.6205 106.59 83.6215 106.605 83.6254C106.62 83.6294 106.634 83.6364 106.647 83.646C106.659 83.6555 106.67 83.6675 106.678 83.6811C106.685 83.6948 106.691 83.7099 106.692 83.7255C106.696 83.7406 106.696 83.7563 106.693 83.7715C106.69 83.7867 106.684 83.8011 106.675 83.8138C106.666 83.8265 106.654 83.8371 106.641 83.845C106.628 83.853 106.613 83.858 106.598 83.8599C105.305 84.0835 104.025 84.3789 102.765 84.745L102.725 84.7529Z" fill="black"/>
<path d="M120.435 83.8203C118.267 83.3924 116.062 83.178 113.852 83.1802C113.837 83.1814 113.821 83.1791 113.806 83.1736C113.791 83.168 113.777 83.1594 113.766 83.1481C113.755 83.1369 113.746 83.1233 113.74 83.1084C113.735 83.0935 113.733 83.0775 113.734 83.0617C113.734 83.0461 113.737 83.0307 113.743 83.0163C113.749 83.0019 113.758 82.9888 113.769 82.9778C113.78 82.9668 113.793 82.9581 113.807 82.9521C113.821 82.9462 113.837 82.9431 113.852 82.9431C116.078 82.937 118.299 83.1515 120.483 83.5832C120.498 83.5861 120.513 83.592 120.527 83.6008C120.54 83.6095 120.552 83.6209 120.56 83.6342C120.569 83.6474 120.575 83.6624 120.578 83.6781C120.581 83.6938 120.581 83.7099 120.578 83.7255C120.575 83.7412 120.569 83.7562 120.56 83.7695C120.551 83.7829 120.54 83.7943 120.527 83.8032C120.513 83.8121 120.498 83.8181 120.483 83.8211C120.467 83.824 120.451 83.8238 120.435 83.8203Z" fill="black"/>
</g>
<path opacity="0.1" d="M142.381 142.988C140.923 143.007 139.473 143.211 138.066 143.597C134.115 144.727 126.307 143.66 120.735 142.751C120.376 139.076 121.208 135.383 123.106 132.217C126.939 132.462 131.104 132.77 133.072 133.007C136.075 133.363 141.385 132.509 145.408 132.683C142.721 135.568 140.966 139.037 142.381 142.988Z" fill="white"/>
<path opacity="0.1" d="M144.475 167.842C144.092 170.758 143.241 173.592 141.954 176.235C141.19 177.696 140.71 179.289 140.539 180.929C135.363 181.807 126.038 183.055 118.807 182.099C118.747 179.618 119.064 177.143 119.747 174.757C120.371 172.766 120.996 171.019 121.557 169.391C124.102 170.474 127.84 171.162 133.079 170.237C137.765 169.407 141.567 168.577 144.475 167.842Z" fill="white"/>
<path d="M155.081 98.2506L149.731 94.7655L148.759 101.783C148.759 101.783 153.714 104.604 155.081 101.989V98.2506Z" fill="#B97964"/>
<path d="M143.385 94.5679L144.642 100.874L148.783 101.783L149.707 94.7654L143.385 94.5679Z" fill="#B97964"/>
<path d="M178.07 79.0786C184.392 80.1534 186.067 88.8859 187.901 98.8355L175.375 101.08C175.375 101.08 174.079 91.8178 172.846 87.0683C171.21 80.7856 178.07 79.0786 178.07 79.0786Z" fill="#407BFF"/>
<path opacity="0.3" d="M178.07 79.0786C184.392 80.1534 186.067 88.8859 187.901 98.8355L175.375 101.08C175.375 101.08 174.079 91.8178 172.846 87.0683C171.21 80.7856 178.07 79.0786 178.07 79.0786Z" fill="black"/>
</svg>
