<svg width="323" height="406" viewBox="0 0 323 406" fill="none" xmlns="http://www.w3.org/2000/svg">
<path d="M191.228 51.6384C163.56 104.997 126.861 153.16 82.7561 193.993L15 142.355C59.1354 101.53 95.8619 53.3662 123.549 0L191.228 51.6384Z" fill="#407BFF"/>
<path opacity="0.2" d="M191.228 51.6384C188.953 56.0386 186.608 60.3999 184.191 64.7225C157.443 112.915 123.204 156.55 82.7561 193.993L15 142.355C59.1354 101.53 95.8619 53.3662 123.549 0L191.228 51.6384Z" fill="white"/>
<path opacity="0.2" d="M134.143 13.7914C133.497 15.0966 132.566 16.2395 131.418 17.1354C130.27 18.0312 128.935 18.657 127.513 18.9661C126.09 19.2753 124.616 19.2599 123.2 18.9211C121.784 18.5823 120.462 17.9288 119.333 17.0092C95.3102 59.9929 65.3086 99.35 30.226 133.903C31.419 134.741 32.4063 135.839 33.1135 137.114C33.8208 138.388 34.2294 139.807 34.3087 141.263C34.3881 142.719 34.136 144.173 33.5714 145.517C33.0069 146.862 32.1447 148.06 31.0498 149.023L73.2774 181.209C75.6512 179.047 78.6937 177.761 81.8992 177.567C85.1047 177.373 88.28 178.282 90.8972 180.143C125.983 145.593 155.985 106.235 180.005 63.2492C174.916 59.3725 173.356 51.6771 176.37 45.9782L176.419 45.891L134.181 13.7042L134.143 13.7914ZM126.389 116.07C118.413 126.508 103.051 128.185 92.6515 120.257C82.2521 112.329 80.7014 97.7718 88.6875 87.3045C96.6736 76.8373 111.144 74.5112 121.562 82.4586C131.981 90.4059 134.424 105.632 126.428 116.07H126.389Z" fill="black"/>
<g opacity="0.2">
<path d="M119.139 107.348L121.94 109.48L120.37 111.534L117.569 109.392C115.544 111.738 112.898 113.482 110.785 113.909L109.137 110.875C111.359 110.274 113.361 109.046 114.904 107.338L109.903 103.529C107.112 105.797 103.884 108.065 100.415 105.409C97.8657 103.471 97.1 99.9526 99.7168 95.7657L96.8965 93.6141C97.4198 92.9357 97.9432 92.2475 98.4569 91.5594L101.229 93.6723C102.666 91.9343 104.506 90.5735 106.588 89.7083L108.343 92.674C106.677 93.3747 105.175 94.4144 103.933 95.7269L108.973 99.6037C111.764 97.3261 114.904 94.9225 118.374 97.5684C120.913 99.4777 121.727 103.064 119.139 107.348ZM106.908 101.232L102.46 97.8398C101.374 99.8266 101.684 101.261 102.789 102.094C103.894 102.928 105.348 102.356 106.908 101.232ZM116.212 100.951C114.991 99.9817 113.586 100.689 112.016 101.92L116.435 105.293C117.569 103.199 117.269 101.775 116.193 100.951H116.212Z" fill="black"/>
</g>
<path opacity="0.2" d="M184.221 64.703C157.465 112.905 123.216 156.546 82.7561 193.993C82.7561 193.993 54.0487 150.195 42.1373 142.054C42.1373 142.054 134.617 107.735 184.221 64.703Z" fill="black"/>
<path d="M255.931 122.922C210.858 162.694 159.239 194.36 103.361 216.517L58.7783 143.905C114.655 121.751 166.271 90.0846 211.339 50.3107C226.212 74.521 241.077 98.725 255.931 122.922Z" fill="#407BFF"/>
<path opacity="0.3" d="M255.931 122.922C210.858 162.694 159.239 194.36 103.361 216.517L84.1032 185.135C75.7035 171.404 67.2748 157.665 58.817 143.915C114.694 121.761 166.31 90.0942 211.377 50.3203C226.225 74.5242 241.076 98.7249 255.931 122.922Z" fill="white"/>
<path opacity="0.2" d="M216.32 67.0097C215.255 68.0045 213.977 68.7446 212.584 69.1741C211.191 69.6036 209.719 69.7114 208.278 69.4893C206.837 69.2672 205.466 68.7211 204.267 67.892C203.068 67.0629 202.072 65.9725 201.356 64.703C163.435 96.1178 121.249 121.995 76.059 141.56C76.8701 142.771 77.3954 144.151 77.5951 145.595C77.7949 147.039 77.6639 148.51 77.2122 149.896C76.7604 151.282 75.9996 152.548 74.9872 153.597C73.9748 154.646 72.7373 155.451 71.3682 155.952L99.1548 201.175C102.15 200.015 105.451 199.916 108.51 200.892C111.569 201.869 114.202 203.864 115.97 206.544C161.164 186.986 203.351 161.109 241.267 129.687C237.914 124.24 239.242 116.497 244.107 112.242L244.184 112.174L216.427 66.9418L216.32 67.0097ZM172.222 159.606C161.009 166.468 146.054 162.514 139.27 151.339C132.485 140.164 136.246 126.053 147.459 119.201C158.673 112.348 173.017 115.324 179.869 126.537C186.721 137.751 183.474 152.764 172.222 159.606Z" fill="black"/>
<g opacity="0.2">
<path d="M168.578 148.819L170.419 151.824L168.21 153.171C167.609 152.202 166.998 151.232 166.388 150.205C163.654 151.649 160.572 152.328 158.411 151.959C158.266 150.816 158.12 149.672 157.965 148.528C160.253 148.768 162.561 148.344 164.614 147.307C163.522 145.524 162.43 143.74 161.338 141.957C157.907 143.062 154.089 144.002 151.801 140.28C150.125 137.547 150.677 133.99 154.631 131.034L152.78 128.011L154.98 126.654L156.802 129.629C158.769 128.528 160.975 127.923 163.228 127.865C163.422 128.999 163.606 130.133 163.8 131.257C161.991 131.319 160.214 131.748 158.576 132.517L161.891 137.925C165.322 136.811 169.111 135.706 171.389 139.418C173.065 142.151 172.523 145.785 168.578 148.819ZM159.351 138.72C158.376 137.131 157.406 135.541 156.444 133.952C154.709 135.415 154.505 136.859 155.213 138.042C155.92 139.224 157.51 139.214 159.351 138.72ZM168.122 141.822C167.318 140.503 165.767 140.629 163.877 141.162L166.785 145.902C168.568 144.4 168.83 142.965 168.122 141.822Z" fill="black"/>
</g>
<path opacity="0.2" d="M255.931 122.922C210.858 162.694 159.239 194.36 103.361 216.517L84.1032 185.135L80.7401 136.511C80.7401 136.511 187.642 144.225 255.931 122.922Z" fill="black"/>
<path d="M268.86 217.031C210.352 230.815 149.899 234.367 90.1801 227.527C88.526 199.181 86.8655 170.833 85.1985 142.481C144.93 149.335 205.398 145.783 263.917 131.984C265.552 160.336 267.199 188.685 268.86 217.031Z" fill="#407BFF"/>
<path opacity="0.4" d="M268.86 217.031C210.352 230.815 149.899 234.367 90.1801 227.527C88.526 199.181 86.8655 170.833 85.1985 142.481C144.93 149.335 205.398 145.783 263.917 131.984C265.552 160.336 267.199 188.685 268.86 217.031Z" fill="white"/>
<path opacity="0.2" d="M260.35 149.023C258.94 149.383 257.467 149.42 256.039 149.133C254.612 148.845 253.269 148.24 252.107 147.362C250.946 146.484 249.998 145.356 249.333 144.061C248.667 142.766 248.302 141.338 248.265 139.883C200.005 149.672 150.6 152.56 101.529 148.461C101.671 149.912 101.482 151.376 100.976 152.743C100.469 154.11 99.6595 155.345 98.6069 156.353C97.5543 157.362 96.2865 158.119 94.899 158.566C93.5115 159.014 92.0405 159.141 90.5968 158.937C91.6371 176.609 92.6709 194.281 93.6982 211.952C96.8863 212.34 99.8451 213.809 102.081 216.114C104.318 218.419 105.696 221.421 105.988 224.619C155.059 228.719 204.464 225.831 252.723 216.042C252.345 209.655 257.171 203.443 263.462 202.028H263.558L260.447 149.023H260.35ZM177.756 209.839C164.633 210.586 153.352 200.031 152.557 186.976C151.762 173.921 161.832 163.26 174.955 162.514C188.078 161.767 199.291 171.236 200.057 184.291C200.823 197.346 190.869 209.112 177.756 209.839Z" fill="black"/>
<g opacity="0.2">
<path d="M179.598 198.606L179.801 202.115L177.223 202.27L177.019 198.791C174.231 198.869 171.486 198.095 169.15 196.571C169.566 195.495 169.973 194.42 170.381 193.344C172.286 194.63 174.518 195.346 176.816 195.408C176.7 193.315 176.577 191.225 176.448 189.138C172.91 188.488 169.092 187.519 168.84 183.158C168.655 179.959 170.826 177.09 175.701 176.373L175.498 172.836L178.076 172.681L178.279 176.16C180.534 176.107 182.765 176.617 184.773 177.643L183.668 180.899C182.047 180.097 180.279 179.635 178.473 179.543L178.851 185.881C182.389 186.511 186.256 187.325 186.518 191.696C186.74 194.846 184.55 197.802 179.598 198.606ZM176.234 185.338C176.118 183.484 176.008 181.626 175.905 179.765C173.685 180.231 172.813 181.403 172.891 182.789C172.968 184.175 174.412 184.883 176.273 185.338H176.234ZM182.505 192.22C182.418 190.688 180.993 190.058 179.074 189.641L179.394 195.195C181.71 194.701 182.621 193.605 182.505 192.22Z" fill="black"/>
</g>
<path d="M302.531 387.576C302.899 391.813 303.338 396.122 303.848 400.501H6.11609C15.4317 321.8 6.11609 287.681 6.11609 287.681C105.615 280.191 303.848 287.681 303.848 287.681C303.848 287.681 297.859 325.594 301.894 379.888C302.083 382.408 302.295 384.971 302.531 387.576Z" fill="#407BFF"/>
<path opacity="0.2" d="M303.848 287.681C290.809 293.768 227.029 294.632 190.333 292.352C153.637 290.073 105.615 297.024 105.615 297.024C77.8095 287.426 6.11609 287.681 6.11609 287.681C105.615 280.191 303.848 287.681 303.848 287.681Z" fill="white"/>
<path opacity="0.2" d="M6.11609 400.501C15.4317 321.8 6.11609 287.68 6.11609 287.68C6.11609 287.68 65.1386 286.392 105.615 297.024C105.615 297.024 107.031 309.03 105.615 315.203C105.615 315.203 154.302 307.303 197.638 308.35C197.638 308.35 130.56 316.066 105.615 321.8C105.615 321.8 65.4925 315.542 40.1082 315.203C40.1082 315.203 92.8872 322.069 105.615 326.175C105.615 326.175 120.707 323.428 128.606 323.428C128.606 323.428 109.706 326.868 105.615 329.94V351.686C105.615 351.686 63.4821 352.522 42.3451 349.506C52.3827 351.078 93.3119 357.378 105.615 357.378C105.615 357.378 152.108 355.665 179.106 357.378C179.106 357.378 117.592 360.917 105.615 363.777H52.8074L105.615 368.208V372.611H128.267L105.615 376.519C105.615 376.519 40.1082 372.356 21.2646 376.519C21.2646 376.519 98.5785 380.03 105.53 382.762L105.615 389.274C105.615 389.274 192.315 377.821 268.992 387.675C268.992 387.675 157.021 383.229 105.615 395.688C105.615 395.688 266.458 392.191 303.819 400.501H6.11609Z" fill="black"/>
<path d="M7.8574 297.024L0 299.771C0 299.771 47.3284 301.399 77.8661 306.071C77.8377 306.071 30.7925 297.704 7.8574 297.024Z" fill="#407BFF"/>
<path opacity="0.2" d="M112.51 306.071L124.487 308.35C124.487 308.35 180.253 302.291 246.17 301.555C246.17 301.555 150.961 296.939 112.51 306.071Z" fill="white"/>
<path opacity="0.2" d="M150.296 318.884C150.296 318.884 183.736 309.766 213.056 310.219C242.376 310.672 298.185 306.071 298.185 306.071L300.379 310.219C300.379 310.219 256.618 312.782 220.503 312.484C196.957 312.529 173.462 314.671 150.296 318.884Z" fill="white"/>
<path opacity="0.2" d="M117.11 332.517C117.11 332.517 156.978 324.023 196.067 324.801C235.155 325.58 284.381 328.638 284.381 328.638C284.381 328.638 177.549 328.638 150.296 334.301L117.11 332.517Z" fill="white"/>
<path d="M186.072 320.172C186.072 320.172 220.404 317.34 250.035 318.884C279.667 320.427 310.785 321.814 310.785 321.814L300.379 324.759C300.379 324.759 229.04 317.609 186.072 320.172Z" fill="#407BFF"/>
<path opacity="0.2" d="M186.072 320.172C186.072 320.172 220.404 317.34 250.035 318.884C279.667 320.427 310.785 321.814 310.785 321.814L300.379 324.759C300.379 324.759 229.04 317.609 186.072 320.172Z" fill="black"/>
<path opacity="0.2" d="M118.399 339.723C118.399 339.723 177.86 338.987 206.501 337.557C235.141 336.127 273.551 344.07 273.551 344.07C273.551 344.07 226.166 343.065 211.498 345.386L118.399 339.723Z" fill="black"/>
<path opacity="0.2" d="M112.51 348.727L150.296 345.386L230.795 348.727L149.262 352.069L112.51 348.727Z" fill="white"/>
<path opacity="0.2" d="M140.768 366.467C140.768 366.467 195.713 361.342 217.119 361.073C238.525 360.804 296.132 356.953 296.132 356.953L289.732 365.447C289.732 365.447 181.414 363.14 140.768 366.467Z" fill="white"/>
<path d="M280.091 337.557L300.379 339.468L305.9 337.557C297.316 336.754 288.676 336.754 280.091 337.557Z" fill="#407BFF"/>
<path d="M302.942 294.731L310.785 295.991L302.361 300.394L252.81 299.346C252.81 299.346 289.959 298.851 302.942 294.731Z" fill="#407BFF"/>
<path opacity="0.2" d="M280.091 337.557L300.379 339.468L305.9 337.557C297.316 336.754 288.676 336.754 280.091 337.557Z" fill="white"/>
<path opacity="0.2" d="M302.942 294.731L310.785 295.991L302.361 300.394L252.81 299.346C252.81 299.346 289.959 298.851 302.942 294.731Z" fill="black"/>
<path opacity="0.2" d="M302.531 387.576C289.223 386.712 195.968 374.99 195.968 374.99C202.183 374.268 283.588 379.081 301.894 379.888C302.082 382.408 302.295 384.971 302.531 387.576Z" fill="black"/>
<path d="M162.117 373.39C162.117 373.39 249.313 373.163 274.258 374.961C299.204 376.759 301.441 373.39 301.441 373.39L313.871 379.378C313.871 379.378 314.508 385.325 281.79 381.176C249.072 377.028 162.117 373.39 162.117 373.39Z" fill="#407BFF"/>
<path d="M90.8767 329.544C90.8767 329.544 39.8107 321.446 10.0376 323.513C14.5124 324.53 18.6809 326.597 22.1989 329.544H90.8767Z" fill="#407BFF"/>
<path d="M9.98094 351.686C11.1419 351.559 48.2061 356.443 62.3636 356.953L4.74268 359.275L9.98094 351.686Z" fill="#407BFF"/>
<path d="M7.88571 383.71L63.8643 385.692L0 390.421L7.88571 383.71Z" fill="#407BFF"/>
<path d="M109.876 283.858C109.876 283.858 189.384 297.449 235.495 243.042L322.365 265.34C322.365 265.34 306.382 298.497 186.326 294.094C66.2711 289.691 109.876 283.858 109.876 283.858Z" fill="#407BFF"/>
<path opacity="0.5" d="M109.876 283.858C109.876 283.858 189.384 297.449 235.495 243.042L322.365 265.34C322.365 265.34 306.382 298.497 186.326 294.094C66.2711 289.691 109.876 283.858 109.876 283.858Z" fill="white"/>
<path opacity="0.2" d="M155.279 286.788C155.279 286.788 203.882 284.226 231.361 253.136C233.883 253.917 236.582 253.921 239.107 253.148C241.631 252.376 243.865 250.862 245.519 248.804L308.93 265.609C308.93 265.609 302.106 268.001 304.499 275.901C304.442 275.901 221.21 309.624 155.279 286.788Z" fill="black"/>
<path d="M227.822 129.103L229.309 121.217C229.309 121.217 226.236 118.3 226.59 115.554C226.944 112.807 240.62 108.475 243.041 108.235C245.462 107.994 244.542 117.904 243.806 119.702C243.07 121.5 234.858 123.666 234.858 123.666L233.825 131.977L227.822 129.103Z" fill="#EBB376"/>
<path d="M70.1503 167.866L64.728 161.948C64.728 161.948 65.7898 157.856 64.0626 155.761C62.3354 153.666 48.3903 157.106 46.2383 158.225C44.0864 159.343 50.0608 167.229 51.6465 168.361C53.2321 169.494 61.3302 166.946 61.3302 166.946L66.5968 173.472L70.1503 167.866Z" fill="#EBB376"/>
<path d="M177.988 155.152C193.235 154.303 207.053 157.488 214.146 155.152C221.239 152.816 228.119 123.312 228.119 123.312L235.58 125.832C235.58 125.832 232.749 156.54 220.489 164.765C208.228 172.991 179.814 172.92 179.814 172.92L177.988 155.152Z" fill="#407BFF"/>
<path opacity="0.7" d="M235.58 125.832C235.58 125.832 232.749 156.54 220.489 164.765C213.41 169.437 201.277 171.433 192.06 172.297C185.081 172.934 179.814 172.92 179.814 172.92L178.965 164.624L177.988 155.152C193.235 154.303 207.053 157.488 214.146 155.152C221.239 152.816 228.119 123.312 228.119 123.312L235.58 125.832Z" fill="white"/>
<path opacity="0.2" d="M192.06 172.297C185.081 172.934 179.814 172.92 179.814 172.92L178.964 164.624C183.71 166.468 188.131 169.058 192.06 172.297Z" fill="black"/>
<path d="M275.462 393.649L285.33 390.945L283.56 366.849L273.706 369.567L275.462 393.649Z" fill="#B97964"/>
<path d="M285.938 389.628L274.471 390.421C274.278 390.428 274.096 390.511 273.963 390.652C273.831 390.792 273.759 390.979 273.763 391.171L273.834 400.275C273.866 400.751 274.085 401.194 274.443 401.51C274.801 401.825 275.269 401.987 275.745 401.959C279.737 401.62 281.634 401.252 286.674 400.869C291.171 400.716 295.652 400.243 300.082 399.454C304.329 398.477 303.196 394.371 301.327 394.413C296.5 394.153 291.822 392.646 287.75 390.039C287.207 389.708 286.571 389.564 285.938 389.628Z" fill="#263238"/>
<path d="M289.676 391.115C288.757 391.157 287.836 391.1 286.929 390.945C286.883 390.939 286.84 390.919 286.805 390.889C286.77 390.859 286.744 390.819 286.731 390.775C286.724 390.73 286.727 390.684 286.739 390.64C286.752 390.596 286.773 390.555 286.802 390.52C287.113 390.265 289.874 388.099 291.162 388.496C291.308 388.542 291.439 388.625 291.543 388.737C291.647 388.848 291.721 388.984 291.757 389.133C291.856 389.352 291.89 389.596 291.855 389.834C291.82 390.073 291.717 390.296 291.559 390.478C291.029 390.911 290.36 391.137 289.676 391.115ZM291.021 388.991C290.341 388.779 288.699 389.756 287.566 390.591C289.421 390.817 290.752 390.676 291.205 390.166C291.296 390.044 291.354 389.9 291.374 389.749C291.394 389.598 291.375 389.444 291.318 389.303C291.295 389.232 291.257 389.167 291.205 389.113C291.154 389.059 291.091 389.017 291.021 388.991Z" fill="#263238"/>
<path d="M286.972 390.945C286.956 390.953 286.939 390.956 286.922 390.956C286.905 390.956 286.888 390.953 286.873 390.945C286.839 390.928 286.809 390.904 286.785 390.874C286.76 390.845 286.742 390.811 286.731 390.775C286.731 390.676 286.292 387.731 287.241 386.655C287.367 386.521 287.521 386.415 287.692 386.347C287.864 386.278 288.048 386.248 288.232 386.259C288.435 386.252 288.635 386.313 288.801 386.43C288.967 386.548 289.09 386.716 289.152 386.91C289.449 388.014 288.076 390.251 287.113 390.917C287.093 390.932 287.07 390.942 287.046 390.947C287.021 390.952 286.996 390.951 286.972 390.945ZM288.104 386.783C288.008 386.787 287.914 386.812 287.829 386.856C287.743 386.9 287.668 386.962 287.609 387.038C287.111 388.051 286.957 389.199 287.17 390.308C288.054 389.46 288.593 388.316 288.685 387.094C288.685 386.953 288.557 386.797 288.218 386.783H288.104Z" fill="#263238"/>
<path opacity="0.2" d="M273.706 369.567L283.574 366.863L284.579 380.638L274.655 382.847L273.706 369.567Z" fill="black"/>
<path d="M262.55 393.295L253.221 397.556L250.856 387.533L247.671 374.055L256.958 369.794L260.158 383.257L262.55 393.295Z" fill="#B97964"/>
<path opacity="0.2" d="M260.158 383.257L250.856 387.533L247.671 374.055L256.958 369.794L260.158 383.257Z" fill="black"/>
<path d="M262.933 391.908L251.748 394.527C251.561 394.561 251.395 394.668 251.286 394.825C251.177 394.981 251.135 395.174 251.168 395.362L252.697 404.352C252.742 404.586 252.834 404.809 252.967 405.008C253.099 405.206 253.27 405.376 253.469 405.508C253.668 405.64 253.891 405.731 254.126 405.775C254.36 405.82 254.601 405.817 254.834 405.768C258.728 404.791 260.497 404.126 265.453 402.936C269.871 402.098 274.224 400.944 278.477 399.482C282.456 397.854 280.743 393.975 278.916 394.314C274.584 395.093 268.1 393.677 264.759 392.134C264.192 391.857 263.55 391.778 262.933 391.908Z" fill="#263238"/>
<path d="M266.868 392.785C265.965 392.969 265.044 393.055 264.122 393.04C264.075 393.047 264.028 393.038 263.987 393.015C263.946 392.992 263.914 392.956 263.895 392.913C263.874 392.874 263.863 392.83 263.863 392.785C263.863 392.741 263.874 392.697 263.895 392.658C264.164 392.361 266.529 389.826 267.874 389.954C268.023 389.98 268.163 390.042 268.282 390.136C268.401 390.23 268.494 390.353 268.553 390.492C268.693 390.701 268.768 390.948 268.768 391.2C268.768 391.452 268.693 391.698 268.553 391.908C268.109 392.385 267.514 392.696 266.868 392.785ZM267.859 390.478C267.137 390.364 265.679 391.596 264.688 392.601C266.557 392.531 267.859 392.177 268.213 391.61C268.293 391.478 268.335 391.326 268.335 391.171C268.335 391.017 268.293 390.865 268.213 390.733C268.188 390.664 268.144 390.604 268.086 390.559C268.029 390.514 267.96 390.486 267.888 390.478H267.859Z" fill="#263238"/>
<path d="M264.164 393.04C264.151 393.046 264.136 393.05 264.122 393.05C264.107 393.05 264.093 393.046 264.079 393.04C264.041 393.028 264.006 393.008 263.977 392.981C263.947 392.954 263.924 392.921 263.909 392.884C263.909 392.799 262.975 389.94 263.754 388.736C263.855 388.583 263.988 388.454 264.145 388.359C264.302 388.264 264.477 388.204 264.66 388.184C264.862 388.142 265.073 388.17 265.258 388.262C265.443 388.355 265.591 388.507 265.679 388.694C266.146 389.727 265.155 392.162 264.263 392.941C264.258 392.965 264.246 392.988 264.229 393.005C264.211 393.023 264.189 393.035 264.164 393.04ZM264.617 388.793C264.431 388.841 264.269 388.957 264.164 389.119C263.84 390.204 263.87 391.364 264.249 392.431C264.988 391.454 265.345 390.241 265.254 389.019C265.254 388.878 265.07 388.736 264.731 388.779L264.617 388.793Z" fill="#263238"/>
<path d="M193.419 256.463L190.404 223.165L134.807 224.467C134.807 224.467 128.224 270.861 133.009 279.384C141.504 294.603 197.596 285.967 210.705 287.256C216.057 290.087 244.683 385.041 244.683 385.041L260.724 378.571C260.724 378.571 243.48 298.454 239.488 283.362C234.094 262.381 211.838 262.749 193.419 256.463Z" fill="#263238"/>
<path d="M285.556 376.929L271.399 378.232C271.399 378.232 254.056 289.903 252.711 289.521C250.304 288.827 243.268 288.034 239.488 287.043C213.24 280.219 148.597 267.662 148.597 267.662L172.438 244.698C172.438 244.698 280.516 257.667 282.866 283.037C284.07 295.184 285.556 376.929 285.556 376.929Z" fill="#263238"/>
<path opacity="0.2" d="M248.903 289.591C246.482 288.898 243.24 288.048 239.488 287.057C240.536 287.609 237.506 273.863 234.476 270.309C228.459 263.23 204.307 259.379 195.656 257.992C188.408 256.831 164.114 254.693 164.114 254.693C164.114 254.693 207.011 250.984 239.332 259.861C255.316 264.25 252.47 279.851 248.903 289.591Z" fill="black"/>
<path d="M127.389 163.236C127.389 163.236 147.903 152.349 177.988 155.152C177.988 155.152 188.422 181.683 190.404 223.108L134.468 226.987C134.468 226.987 135.473 191.48 127.389 163.236Z" fill="#407BFF"/>
<path opacity="0.7" d="M134.468 227.044C134.611 217.376 134.252 207.708 133.392 198.078C132.896 192.415 132.188 186.455 131.169 180.381C130.232 174.6 128.97 168.876 127.389 163.236C127.389 163.236 147.903 152.349 177.988 155.152C177.988 155.152 188.422 181.683 190.404 223.108L134.468 227.044Z" fill="white"/>
<path opacity="0.2" d="M133.434 198.078C132.939 192.415 132.231 186.455 131.212 180.381C132.205 179.371 133.402 178.585 134.723 178.073L134.793 177.45C134.751 178.13 137.682 188.592 133.434 198.078Z" fill="black"/>
<path d="M142.891 159.385C148.016 164.043 160.56 162.316 160.56 162.316C160.56 162.316 168.389 160.178 166.747 157.729C162.131 156.964 159.909 154.813 158.974 152.066C158.478 150.353 158.32 148.559 158.507 146.785C158.507 145.823 158.733 144.831 158.903 143.855L143.344 132.373C145.425 139.947 147.917 153.892 142.891 159.385Z" fill="#EBB376"/>
<path opacity="0.2" d="M146.969 139.664C147.592 148.966 155.237 151.542 158.974 152.066C158.478 150.353 158.32 148.559 158.507 146.785L146.969 139.664Z" fill="black"/>
<path d="M156.808 100.462C162.57 102.019 167.37 115.313 163.052 124.105C158.734 132.897 145.723 108.305 145.723 108.305C145.723 108.305 153.085 99.4711 156.808 100.462Z" fill="#263238"/>
<path d="M168.828 130.957C168.856 131.495 168.856 132.034 168.828 132.571C168.729 136.408 167.181 140.065 164.496 142.807C162.096 145.307 158.85 146.821 155.392 147.054C152.933 147.176 150.486 146.628 148.314 145.469C141.433 141.972 139.578 135.912 135.572 125.917C134.574 123.591 134.194 121.047 134.468 118.531C134.742 116.015 135.661 113.613 137.137 111.557C138.612 109.5 140.593 107.86 142.889 106.794C145.184 105.728 147.716 105.274 150.239 105.474C161.565 106.309 167.95 121.047 168.828 130.957Z" fill="#EBB376"/>
<path d="M152.009 123.581C152.221 124.417 152.929 124.997 153.425 124.756C153.92 124.516 154.189 123.751 153.92 122.93C153.651 122.109 152.972 121.514 152.504 121.755C152.037 121.996 151.74 122.732 152.009 123.581Z" fill="#263238"/>
<path d="M161.395 120.495C161.608 121.33 162.33 121.84 162.811 121.67C163.292 121.5 163.575 120.665 163.306 119.829C163.037 118.994 162.372 118.485 161.891 118.654C161.409 118.824 161.14 119.702 161.395 120.495Z" fill="#263238"/>
<path d="M158.55 121.882C160.375 124.095 162.495 126.048 164.85 127.687C164.413 128.283 163.851 128.776 163.202 129.131C162.554 129.486 161.836 129.693 161.098 129.74L158.55 121.882Z" fill="#D58745"/>
<path d="M163.561 115.384C163.493 115.45 163.409 115.499 163.318 115.526C163.227 115.553 163.131 115.558 163.037 115.54C162.418 115.37 161.767 115.349 161.138 115.477C160.508 115.605 159.918 115.878 159.413 116.276C159.316 116.37 159.185 116.421 159.049 116.418C158.914 116.416 158.785 116.359 158.691 116.262C158.597 116.164 158.546 116.033 158.549 115.898C158.551 115.763 158.608 115.634 158.705 115.54C159.334 115.024 160.077 114.664 160.872 114.492C161.667 114.32 162.492 114.339 163.278 114.549C163.344 114.562 163.407 114.589 163.463 114.627C163.519 114.665 163.567 114.714 163.604 114.77C163.641 114.827 163.666 114.89 163.678 114.957C163.69 115.023 163.689 115.092 163.675 115.158C163.645 115.237 163.607 115.313 163.561 115.384Z" fill="#263238"/>
<path d="M148.908 120.438C148.812 120.474 148.707 120.474 148.611 120.438C148.495 120.37 148.411 120.259 148.376 120.129C148.342 119.999 148.36 119.861 148.427 119.745C148.84 119.04 149.415 118.443 150.104 118.005C150.794 117.567 151.578 117.299 152.391 117.225C152.458 117.223 152.525 117.234 152.587 117.258C152.65 117.282 152.707 117.318 152.756 117.364C152.804 117.41 152.843 117.465 152.871 117.526C152.898 117.587 152.913 117.653 152.915 117.72C152.915 117.854 152.864 117.983 152.772 118.081C152.679 118.178 152.553 118.237 152.419 118.244C151.778 118.321 151.164 118.547 150.626 118.903C150.088 119.26 149.64 119.737 149.319 120.297C149.264 120.348 149.199 120.386 149.129 120.411C149.058 120.435 148.983 120.445 148.908 120.438Z" fill="#263238"/>
<path d="M138.885 110.627L141.108 114.874C140.506 115.526 140.171 116.38 140.171 117.267C140.171 118.154 140.506 119.008 141.108 119.66C143.939 122.831 144.052 129.4 142.07 132.798C142.07 132.798 141.377 131.226 140.159 132.118C138.942 133.01 142.538 141.264 146.714 144.251C146.714 144.251 141.32 142.17 135.685 134.228C130.475 126.894 127.616 120.198 128.083 116.403L138.885 110.627Z" fill="#263238"/>
<path d="M133.887 135.643C135.772 137.581 138.348 138.691 141.051 138.73C144.647 138.73 145.496 135.318 143.713 132.415C142.113 129.853 138.304 126.668 135.091 128.069C131.877 129.471 131.594 133.237 133.887 135.643Z" fill="#EBB376"/>
<path d="M162.202 133.293C161.55 134.72 161.001 136.191 160.56 137.696L159.739 137.597C156.029 137.102 154.458 135.643 153.863 134.171C153.587 133.45 153.485 132.674 153.566 131.906C153.595 131.464 153.69 131.03 153.849 130.617C156.002 131.948 158.417 132.798 160.928 133.109C161.749 133.251 162.202 133.293 162.202 133.293Z" fill="#263238"/>
<path d="M160.942 133.109L160.418 134.397C156.921 133.916 154.515 133.109 153.566 131.906C153.595 131.464 153.69 131.03 153.849 130.617C156.006 131.95 158.426 132.8 160.942 133.109Z" fill="white"/>
<path d="M159.739 137.597C156.029 137.102 154.458 135.643 153.863 134.171C155.276 134.406 156.636 134.885 157.884 135.587C158.695 136.049 159.343 136.751 159.739 137.597Z" fill="#DE5753"/>
<path d="M148.356 111.363C148.356 111.363 147.365 104.596 151.641 105.913C155.916 107.229 156.213 104.653 154.939 99.4284C153.665 94.2043 141.405 92.3497 134.468 100.915C127.53 109.48 125.109 116.658 128.465 120.452C131.82 124.246 144.604 113.048 144.604 113.048C144.953 111.135 145.765 109.336 146.969 107.81C147.047 109.11 147.532 110.353 148.356 111.363Z" fill="#263238"/>
<path d="M154.968 161.778L161.749 167.767C161.749 167.767 165.472 192.967 174.618 203.981H180.281L181.4 200.074C172.892 190.576 166.785 179.177 163.59 166.832V158.805L154.968 161.778Z" fill="#263238"/>
<path d="M144.619 153.935L158.55 159.159L159.739 152.066L166.973 154.685L168.828 163.647L158.974 161.212L154.09 167.752L139.89 158.564L144.619 153.935Z" fill="#407BFF"/>
<path opacity="0.5" d="M144.619 153.935L158.55 159.159L159.739 152.066L166.973 154.685L168.828 163.647L158.974 161.212L154.09 167.752L139.89 158.564L144.619 153.935Z" fill="white"/>
<path d="M133.675 226.109L191.055 220.659L191.183 227.624L133.703 232.325L133.675 226.109Z" fill="black"/>
<path d="M178.908 222.089C178.649 221.855 178.344 221.679 178.012 221.572C177.68 221.465 177.329 221.428 176.983 221.466L171.9 221.99C171.272 222.054 170.691 222.351 170.271 222.823C169.852 223.295 169.625 223.907 169.635 224.538V227.794C169.65 228.464 169.929 229.101 170.412 229.565C170.895 230.029 171.542 230.283 172.212 230.272H172.424L177.506 229.734C178.133 229.67 178.713 229.372 179.13 228.9C179.547 228.428 179.771 227.816 179.757 227.186V223.943C179.756 223.592 179.679 223.244 179.532 222.925C179.386 222.605 179.173 222.32 178.908 222.089ZM177.421 228.431L172.353 228.969C172.179 228.993 172.002 228.98 171.834 228.931C171.666 228.882 171.51 228.798 171.376 228.685C171.242 228.571 171.134 228.43 171.059 228.272C170.983 228.114 170.942 227.941 170.937 227.766V224.524C170.932 224.216 171.043 223.917 171.247 223.686C171.452 223.456 171.735 223.31 172.042 223.278L177.11 222.754H177.223C177.545 222.754 177.854 222.88 178.084 223.105C178.315 223.33 178.448 223.636 178.455 223.958V224.397H178.257L176.841 224.524C176.728 224.534 176.617 224.567 176.516 224.619C176.416 224.672 176.326 224.745 176.253 224.832C176.18 224.919 176.125 225.02 176.091 225.129C176.057 225.238 176.045 225.352 176.055 225.465C176.065 225.579 176.098 225.689 176.151 225.79C176.204 225.891 176.276 225.98 176.363 226.053C176.451 226.126 176.552 226.181 176.66 226.215C176.769 226.249 176.883 226.261 176.997 226.251L178.412 226.11H178.483V227.228C178.482 227.523 178.374 227.808 178.179 228.029C177.983 228.251 177.714 228.394 177.421 228.431Z" fill="white"/>
<path d="M127.389 163.236C117.819 168.899 104.001 187.545 99.1448 187.162C94.2888 186.78 68.0975 163.519 68.0975 163.519L62.123 169.989C62.123 169.989 86.3181 198.885 97.5875 201.065C108.857 203.245 133.675 182.349 133.675 182.349C135.078 178.748 135.078 174.751 133.675 171.15C132.402 167.952 130.216 165.2 127.389 163.236Z" fill="#407BFF"/>
<path opacity="0.7" d="M127.389 163.236C117.819 168.899 104.001 187.545 99.1448 187.162C94.2888 186.78 68.0975 163.519 68.0975 163.519L62.123 169.989C62.123 169.989 86.3181 198.885 97.5875 201.065C108.857 203.245 133.675 182.349 133.675 182.349C135.078 178.748 135.078 174.751 133.675 171.15C132.402 167.952 130.216 165.2 127.389 163.236Z" fill="white"/>
<path d="M214.995 294.844C214.995 294.844 24.9879 296.161 13.1947 269.474L97.8139 263.33C114.607 270.374 131.795 276.439 149.29 281.494C168.828 287.199 191.989 292.607 214.995 294.844Z" fill="#407BFF"/>
<path opacity="0.2" d="M214.995 294.844C214.995 294.844 209.035 294.844 199.125 294.844C158.479 292.013 111.023 271.824 111.023 271.824C93.8922 275.59 82.1132 268.837 82.1132 268.837L35.9316 271.484C36.1803 272.621 36.1694 273.8 35.8998 274.933C35.6302 276.065 35.1087 277.122 34.3743 278.025C58.3145 284.75 84.1236 288.841 105.162 291.319C60.7213 287.992 18.5462 281.649 13.1381 269.516L97.7572 263.372C97.7572 263.372 156.865 289.181 214.995 294.844Z" fill="white"/>
<path opacity="0.2" d="M214.995 294.844C214.995 294.844 24.9879 296.161 13.1947 269.474C13.1947 269.474 77.3988 297.208 149.29 281.494C168.828 287.199 191.989 292.607 214.995 294.844Z" fill="black"/>
</svg>
